<svg width="85" height="102" viewBox="0 0 85 102" fill="none" xmlns="http://www.w3.org/2000/svg">
<rect width="85" height="102" rx="10" fill="#202531"/>
<rect x="13" y="9" width="60" height="60" rx="30" fill="#242A38"/>
<path d="M43 21C33.0753 21 25 29.0753 25 39C25 48.9247 33.0753 57 43 57C52.9247 57 61 48.9247 61 39C61 29.0753 52.9247 21 43 21ZM44.143 26.8477L48.7712 24.3593C51.334 25.374 53.5705 27.0367 55.2715 29.1517L54.169 34.2413L50.6388 35.9715L44.143 31.2397V26.8477ZM37.267 24.3457L41.8953 26.8432V31.2397L35.404 35.9715L31.8558 34.239L30.7532 29.118C32.4587 27.0075 34.6997 25.3538 37.267 24.3457ZM30.0175 47.8965C28.5482 45.759 27.592 43.2458 27.3287 40.53L31.138 36.3923L34.612 38.091L37.2288 45.5228L35.017 48.1732L30.0175 47.8965ZM47.0117 54.2122C45.727 54.552 44.3883 54.75 43 54.75C41.3215 54.75 39.706 54.48 38.1873 53.9917L36.772 49.5863L39.0288 46.875H46.9802L49.1965 49.4985L47.0117 54.2122ZM50.9515 48.0968L48.7758 45.5205L51.4285 38.091L54.8867 36.3967L58.6735 40.5322C58.4463 42.8745 57.6925 45.0592 56.5472 46.992L50.9515 48.0968Z" fill="white"/>
<path d="M24.5208 77.864C25.5021 77.864 26.2754 78.0027 26.8408 78.28C27.4061 78.5573 27.8168 79 28.0728 79.608C28.3288 80.2053 28.4568 81.016 28.4568 82.04C28.4568 83.4053 28.1208 84.472 27.4488 85.24C26.7874 85.9973 25.9181 86.5573 24.8408 86.92L24.1688 87.144C24.1474 87.1547 24.1101 87.16 24.0568 87.16C23.9821 87.16 23.9128 87.1333 23.8488 87.08C23.7954 87.0267 23.7688 86.952 23.7688 86.856V86.168C23.7688 85.976 23.8861 85.832 24.1208 85.736L24.7448 85.496C25.4914 85.208 26.0621 84.8027 26.4568 84.28C26.8514 83.7573 27.0488 82.9893 27.0488 81.976C27.0488 81.2613 26.9634 80.7013 26.7928 80.296C26.6221 79.88 26.3394 79.5813 25.9448 79.4C25.5501 79.2187 25.0114 79.128 24.3288 79.128H23.8328H23.7848L22.3128 79.112C22.2061 79.112 22.1154 79.08 22.0408 79.016C21.9768 78.952 21.9448 78.8667 21.9448 78.76V76.008C21.9448 75.9013 21.9768 75.816 22.0408 75.752C22.1154 75.6773 22.2061 75.64 22.3128 75.64H22.9368C23.0434 75.64 23.1288 75.6773 23.1928 75.752C23.2674 75.816 23.3048 75.9013 23.3048 76.008V77.864H24.5208ZM35.8401 86.632C35.8508 86.7387 35.8188 86.8293 35.7441 86.904C35.6695 86.968 35.5788 87 35.4721 87H34.7841C34.5708 87 34.4481 86.8773 34.4161 86.632L34.0481 84.76C33.6535 85.368 33.2001 85.8427 32.6881 86.184C32.2935 86.4507 31.9255 86.6587 31.5841 86.808C31.2428 86.9467 30.8801 87.0533 30.4961 87.128L30.3841 87.144C30.2028 87.144 30.1121 87.0587 30.1121 86.888V86.136C30.1121 85.9547 30.2241 85.8213 30.4481 85.736C30.4801 85.7253 30.6881 85.656 31.0721 85.528C31.4668 85.3893 31.8188 85.2187 32.1281 85.016C32.4481 84.8133 32.7628 84.536 33.0721 84.184C33.3815 83.8213 33.6001 83.4853 33.7281 83.176L33.4401 81.72C33.3121 81.0907 33.1735 80.5947 33.0241 80.232C32.8855 79.8587 32.6935 79.576 32.4481 79.384C32.2028 79.192 31.8828 79.096 31.4881 79.096H30.8961C30.7895 79.096 30.6988 79.064 30.6241 79C30.5601 78.9253 30.5281 78.8347 30.5281 78.728V78.2C30.5281 78.0933 30.5601 78.008 30.6241 77.944C30.6988 77.8693 30.7895 77.832 30.8961 77.832H31.4881C32.1708 77.832 32.7308 77.9707 33.1681 78.248C33.6055 78.5253 33.9521 78.936 34.2081 79.48C34.4641 80.024 34.6828 80.744 34.8641 81.64L35.8401 86.632ZM42.057 87C41.9503 87 41.8597 86.968 41.785 86.904C41.721 86.8293 41.689 86.7387 41.689 86.632V81.848C41.689 80.0133 40.7717 79.096 38.937 79.096H36.873C36.7663 79.096 36.6757 79.064 36.601 79C36.537 78.9253 36.505 78.8347 36.505 78.728V78.232C36.505 78.1253 36.537 78.04 36.601 77.976C36.6757 77.9013 36.7663 77.864 36.873 77.864H39.017C41.737 77.864 43.097 79.1653 43.097 81.768V86.632C43.097 86.7387 43.0597 86.8293 42.985 86.904C42.921 86.968 42.8357 87 42.729 87H42.057ZM45.866 87C45.7593 87 45.6687 86.968 45.594 86.904C45.53 86.8293 45.498 86.7387 45.498 86.632V78.232C45.498 78.1147 45.53 78.024 45.594 77.96C45.6687 77.896 45.7593 77.864 45.866 77.864H46.554C46.6607 77.864 46.746 77.9013 46.81 77.976C46.8847 78.04 46.922 78.1253 46.922 78.232V86.632C46.922 86.7387 46.8847 86.8293 46.81 86.904C46.746 86.968 46.6607 87 46.554 87H45.866ZM55.9799 77.864C56.0865 77.864 56.1719 77.9013 56.2359 77.976C56.3105 78.04 56.3479 78.1253 56.3479 78.232V78.728C56.3479 78.8347 56.3105 78.9253 56.2359 79C56.1719 79.064 56.0865 79.096 55.9799 79.096H55.0039C54.8545 79.2667 54.7372 79.5173 54.6519 79.848C54.5665 80.1787 54.5239 80.5627 54.5239 81V86.648C54.5239 86.7547 54.4865 86.84 54.4119 86.904C54.3479 86.968 54.2625 87 54.1559 87H53.4839C53.3772 87 53.2919 86.968 53.2279 86.904C53.1639 86.84 53.1319 86.7547 53.1319 86.648V80.904C53.1319 80.4773 53.1639 80.1093 53.2279 79.8C53.3025 79.4907 53.4039 79.256 53.5319 79.096H49.1319C49.0252 79.096 48.9345 79.064 48.8599 79C48.7959 78.9253 48.7639 78.8347 48.7639 78.728V78.232C48.7639 78.1253 48.7959 78.04 48.8599 77.976C48.9345 77.9013 49.0252 77.864 49.1319 77.864H55.9799ZM58.6785 87C58.5718 87 58.4812 86.968 58.4065 86.904C58.3425 86.8293 58.3105 86.7387 58.3105 86.632V86.104C58.3105 85.9973 58.3425 85.912 58.4065 85.848C58.4812 85.7733 58.5718 85.736 58.6785 85.736H60.9665C61.9052 85.736 62.5932 85.5067 63.0305 85.048C63.4678 84.5787 63.7025 83.8907 63.7345 82.984C63.7452 82.8347 63.7505 82.648 63.7505 82.424C63.7505 82.2107 63.7452 82.0293 63.7345 81.88C63.7025 80.9733 63.4678 80.2907 63.0305 79.832C62.5932 79.3627 61.9052 79.128 60.9665 79.128H58.6785C58.5718 79.128 58.4812 79.096 58.4065 79.032C58.3425 78.9573 58.3105 78.8667 58.3105 78.76V78.232C58.3105 78.1253 58.3425 78.04 58.4065 77.976C58.4812 77.9013 58.5718 77.864 58.6785 77.864H61.0465C62.4012 77.864 63.4038 78.2 64.0545 78.872C64.7052 79.544 65.0572 80.5253 65.1105 81.816C65.1212 81.9653 65.1265 82.168 65.1265 82.424C65.1265 82.6907 65.1212 82.8987 65.1105 83.048C65.0572 84.3387 64.7052 85.32 64.0545 85.992C63.4038 86.664 62.4012 87 61.0465 87H58.6785Z" fill="white"/>
</svg>
