<svg width="85" height="102" viewBox="0 0 85 102" fill="none" xmlns="http://www.w3.org/2000/svg">
<rect width="85" height="102" rx="10" fill="#202531"/>
<rect x="13" y="9" width="60" height="60" rx="30" fill="#242A38"/>
<path d="M20.7708 77.864C21.7521 77.864 22.5254 78.0027 23.0908 78.28C23.6561 78.5573 24.0668 79 24.3228 79.608C24.5788 80.2053 24.7068 81.016 24.7068 82.04C24.7068 83.4053 24.3708 84.472 23.6988 85.24C23.0374 85.9973 22.1681 86.5573 21.0908 86.92L20.4188 87.144C20.3974 87.1547 20.3601 87.16 20.3068 87.16C20.2321 87.16 20.1628 87.1333 20.0988 87.08C20.0454 87.0267 20.0188 86.952 20.0188 86.856V86.168C20.0188 85.976 20.1361 85.832 20.3708 85.736L20.9948 85.496C21.7414 85.208 22.3121 84.8027 22.7068 84.28C23.1014 83.7573 23.2988 82.9893 23.2988 81.976C23.2988 81.2613 23.2134 80.7013 23.0428 80.296C22.8721 79.88 22.5894 79.5813 22.1948 79.4C21.8001 79.2187 21.2614 79.128 20.5788 79.128H20.0828H20.0348L18.5628 79.112C18.4561 79.112 18.3654 79.08 18.2908 79.016C18.2268 78.952 18.1948 78.8667 18.1948 78.76V76.008C18.1948 75.9013 18.2268 75.816 18.2908 75.752C18.3654 75.6773 18.4561 75.64 18.5628 75.64H19.1868C19.2934 75.64 19.3788 75.6773 19.4428 75.752C19.5174 75.816 19.5548 75.9013 19.5548 76.008V77.864H20.7708ZM30.6658 87.16C29.3538 87.16 28.3724 86.8187 27.7218 86.136C27.0711 85.4533 26.7458 84.4667 26.7458 83.176V78.232C26.7458 78.1147 26.7778 78.024 26.8418 77.96C26.9164 77.896 27.0071 77.864 27.1138 77.864H30.9538C32.3298 77.864 33.3164 78.1733 33.9138 78.792C34.5111 79.4107 34.8364 80.36 34.8898 81.64C34.9004 81.7467 34.9058 82.0347 34.9058 82.504C34.9058 82.9733 34.9004 83.2613 34.8898 83.368C34.8471 84.648 34.4951 85.6027 33.8338 86.232C33.1831 86.8507 32.1271 87.16 30.6658 87.16ZM30.6658 85.896C31.6791 85.896 32.3991 85.688 32.8258 85.272C33.2631 84.856 33.4924 84.1947 33.5138 83.288C33.5244 83.1813 33.5298 82.92 33.5298 82.504C33.5298 82.088 33.5244 81.8267 33.5138 81.72C33.4924 80.8667 33.2471 80.216 32.7778 79.768C32.3191 79.32 31.6844 79.096 30.8738 79.096H28.0898V83.16C28.0898 84.0453 28.3031 84.7227 28.7298 85.192C29.1671 85.6613 29.8124 85.896 30.6658 85.896ZM42.057 87C41.9503 87 41.8597 86.968 41.785 86.904C41.721 86.8293 41.689 86.7387 41.689 86.632V81.848C41.689 80.0133 40.7717 79.096 38.937 79.096H36.873C36.7663 79.096 36.6757 79.064 36.601 79C36.537 78.9253 36.505 78.8347 36.505 78.728V78.232C36.505 78.1253 36.537 78.04 36.601 77.976C36.6757 77.9013 36.7663 77.864 36.873 77.864H39.017C41.737 77.864 43.097 79.1653 43.097 81.768V86.632C43.097 86.7387 43.0597 86.8293 42.985 86.904C42.921 86.968 42.8357 87 42.729 87H42.057ZM45.866 87C45.7593 87 45.6687 86.968 45.594 86.904C45.53 86.8293 45.498 86.7387 45.498 86.632V78.232C45.498 78.1147 45.53 78.024 45.594 77.96C45.6687 77.896 45.7593 77.864 45.866 77.864H46.554C46.6607 77.864 46.746 77.9013 46.81 77.976C46.8847 78.04 46.922 78.1253 46.922 78.232V86.632C46.922 86.7387 46.8847 86.8293 46.81 86.904C46.746 86.968 46.6607 87 46.554 87H45.866ZM55.9799 77.864C56.0865 77.864 56.1719 77.9013 56.2359 77.976C56.3105 78.04 56.3479 78.1253 56.3479 78.232V78.728C56.3479 78.8347 56.3105 78.9253 56.2359 79C56.1719 79.064 56.0865 79.096 55.9799 79.096H55.0039C54.8545 79.2667 54.7372 79.5173 54.6519 79.848C54.5665 80.1787 54.5239 80.5627 54.5239 81V86.648C54.5239 86.7547 54.4865 86.84 54.4119 86.904C54.3479 86.968 54.2625 87 54.1559 87H53.4839C53.3772 87 53.2919 86.968 53.2279 86.904C53.1639 86.84 53.1319 86.7547 53.1319 86.648V80.904C53.1319 80.4773 53.1639 80.1093 53.2279 79.8C53.3025 79.4907 53.4039 79.256 53.5319 79.096H49.1319C49.0252 79.096 48.9345 79.064 48.8599 79C48.7959 78.9253 48.7639 78.8347 48.7639 78.728V78.232C48.7639 78.1253 48.7959 78.04 48.8599 77.976C48.9345 77.9013 49.0252 77.864 49.1319 77.864H55.9799ZM58.6785 87C58.5718 87 58.4812 86.968 58.4065 86.904C58.3425 86.8293 58.3105 86.7387 58.3105 86.632V86.104C58.3105 85.9973 58.3425 85.912 58.4065 85.848C58.4812 85.7733 58.5718 85.736 58.6785 85.736H60.9665C61.9052 85.736 62.5932 85.5067 63.0305 85.048C63.4678 84.5787 63.7025 83.8907 63.7345 82.984C63.7452 82.8347 63.7505 82.648 63.7505 82.424C63.7505 82.2107 63.7452 82.0293 63.7345 81.88C63.7025 80.9733 63.4678 80.2907 63.0305 79.832C62.5932 79.3627 61.9052 79.128 60.9665 79.128H58.6785C58.5718 79.128 58.4812 79.096 58.4065 79.032C58.3425 78.9573 58.3105 78.8667 58.3105 78.76V78.232C58.3105 78.1253 58.3425 78.04 58.4065 77.976C58.4812 77.9013 58.5718 77.864 58.6785 77.864H61.0465C62.4012 77.864 63.4038 78.2 64.0545 78.872C64.7052 79.544 65.0572 80.5253 65.1105 81.816C65.1212 81.9653 65.1265 82.168 65.1265 82.424C65.1265 82.6907 65.1212 82.8987 65.1105 83.048C65.0572 84.3387 64.7052 85.32 64.0545 85.992C63.4038 86.664 62.4012 87 61.0465 87H58.6785Z" fill="white"/>
<path d="M43 21C33.0887 21 25 29.0894 25 39C25 48.9113 33.0894 57 43 57C52.9113 57 61 48.9106 61 39C61 29.0887 52.9106 21 43 21ZM30.2945 29.467C32.1209 31.9173 33.2015 34.8626 33.4028 37.9453H27.1452C27.3539 34.7779 28.4938 31.8609 30.2945 29.467ZM27.1452 40.0547H33.4028C33.2017 43.1394 32.1213 46.0828 30.2944 48.5329C28.4938 46.139 27.3539 43.2221 27.1452 40.0547ZM41.9453 54.8548C37.95 54.5917 34.3537 52.8459 31.7025 50.1632C33.9726 47.2795 35.3023 43.7526 35.5154 40.0547H41.9453V54.8548ZM41.9453 37.9453H35.5154C35.302 34.2498 33.9722 30.7201 31.7028 27.8366C34.3539 25.154 37.9502 23.4083 41.9453 23.1452V37.9453ZM58.8548 37.9453H52.5972C52.7983 34.8606 53.8787 31.9172 55.7056 29.4671C57.5062 31.861 58.6461 34.7779 58.8548 37.9453ZM44.0547 23.1452C48.05 23.4083 51.6463 25.1541 54.2975 27.8368C52.0274 30.7205 50.6977 34.2473 50.4846 37.9453H44.0547V23.1452ZM44.0547 54.8548V40.0547H50.4846C50.6982 43.7476 52.0285 47.2799 54.2972 50.1634C51.6461 52.846 48.0498 54.5917 44.0547 54.8548ZM55.7052 48.5334C53.8792 46.083 52.7986 43.1354 52.5971 40.0547H58.8548C58.6461 43.2223 57.506 46.1395 55.7052 48.5334Z" fill="white"/>
</svg>
