<svg width="85" height="102" viewBox="0 0 85 102" fill="none" xmlns="http://www.w3.org/2000/svg">
<rect width="85" height="102" rx="10" fill="#202531"/>
<rect x="13.5" y="9.5" width="59" height="59" rx="29.5" fill="#242A38" stroke="#242A38"/>
<path d="M32.6189 87.16C31.3069 87.16 30.3255 86.8187 29.6749 86.136C29.0242 85.4533 28.6989 84.4667 28.6989 83.176V78.232C28.6989 78.1147 28.7309 78.024 28.7949 77.96C28.8695 77.896 28.9602 77.864 29.0669 77.864H32.9069C34.2829 77.864 35.2695 78.1733 35.8669 78.792C36.4642 79.4107 36.7895 80.36 36.8429 81.64C36.8535 81.7467 36.8589 82.0347 36.8589 82.504C36.8589 82.9733 36.8535 83.2613 36.8429 83.368C36.8002 84.648 36.4482 85.6027 35.7869 86.232C35.1362 86.8507 34.0802 87.16 32.6189 87.16ZM32.6189 85.896C33.6322 85.896 34.3522 85.688 34.7789 85.272C35.2162 84.856 35.4455 84.1947 35.4669 83.288C35.4775 83.1813 35.4829 82.92 35.4829 82.504C35.4829 82.088 35.4775 81.8267 35.4669 81.72C35.4455 80.8667 35.2002 80.216 34.7309 79.768C34.2722 79.32 33.6375 79.096 32.8269 79.096H30.0429V83.16C30.0429 84.0453 30.2562 84.7227 30.6829 85.192C31.1202 85.6613 31.7655 85.896 32.6189 85.896ZM39.2384 83.288C39.1317 83.288 39.041 83.256 38.9664 83.192C38.9024 83.128 38.8704 83.0427 38.8704 82.936V78.232C38.8704 78.1147 38.9024 78.024 38.9664 77.96C39.041 77.896 39.1317 77.864 39.2384 77.864H39.9264C40.033 77.864 40.1184 77.9013 40.1824 77.976C40.257 78.04 40.2944 78.1253 40.2944 78.232V82.936C40.2944 83.0427 40.257 83.128 40.1824 83.192C40.1184 83.256 40.033 83.288 39.9264 83.288H39.2384ZM47.1495 86.632C47.1602 86.7387 47.1282 86.8293 47.0535 86.904C46.9788 86.968 46.8882 87 46.7815 87H42.5255C42.4188 87 42.3282 86.968 42.2535 86.904C42.1895 86.8293 42.1575 86.7387 42.1575 86.632V86.136C42.1575 86.0293 42.1895 85.944 42.2535 85.88C42.3282 85.8053 42.4188 85.768 42.5255 85.768H45.6775L45.4215 81.688C45.3788 81.016 45.3255 80.5147 45.2615 80.184C45.2082 79.8427 45.0748 79.5707 44.8615 79.368C44.6588 79.1653 44.3442 79.064 43.9175 79.064H43.2615C43.1548 79.064 43.0642 79.032 42.9895 78.968C42.9255 78.8933 42.8935 78.8027 42.8935 78.696V78.2C42.8935 78.0933 42.9255 78.008 42.9895 77.944C43.0642 77.8693 43.1548 77.832 43.2615 77.832H43.9175C44.6855 77.832 45.2722 77.9867 45.6775 78.296C46.0828 78.5947 46.3655 79.0107 46.5255 79.544C46.6855 80.0773 46.7922 80.776 46.8455 81.64L47.1495 86.632ZM53.1059 87.16C51.7085 87.16 50.6899 86.8293 50.0499 86.168C49.4099 85.496 49.0899 84.52 49.0899 83.24V78.232C49.0899 78.1147 49.1219 78.024 49.1859 77.96C49.2605 77.896 49.3512 77.864 49.4579 77.864H50.0659C50.1725 77.864 50.2579 77.9013 50.3219 77.976C50.3965 78.04 50.4339 78.1253 50.4339 78.232V83.16C50.4339 84.0453 50.6525 84.7227 51.0899 85.192C51.5379 85.6613 52.2099 85.896 53.1059 85.896C53.9912 85.896 54.6419 85.6827 55.0579 85.256C55.4845 84.8293 55.7085 84.1733 55.7299 83.288V82.792V81.624C55.7192 80.76 55.5325 80.1147 55.1699 79.688C54.8179 79.2613 54.3379 79.048 53.7299 79.048C53.5379 79.048 53.3192 79.0853 53.0739 79.16C52.8392 79.224 52.6419 79.3093 52.4819 79.416C52.4392 79.448 52.3859 79.464 52.3219 79.464C52.2472 79.464 52.1779 79.4373 52.1139 79.384C52.0605 79.32 52.0339 79.2507 52.0339 79.176V78.712C52.0339 78.584 52.0445 78.488 52.0659 78.424C52.0872 78.3493 52.1405 78.2853 52.2259 78.232C52.4605 78.0827 52.7059 77.9707 52.9619 77.896C53.2179 77.8213 53.5325 77.784 53.9059 77.784C54.9405 77.784 55.7245 78.088 56.2579 78.696C56.8019 79.2933 57.0845 80.2213 57.1059 81.48C57.1165 81.5867 57.1219 81.9013 57.1219 82.424C57.1219 82.9467 57.1165 83.2613 57.1059 83.368C57.0739 84.648 56.7485 85.6027 56.1299 86.232C55.5112 86.8507 54.5032 87.16 53.1059 87.16Z" fill="white"/>
<path d="M43 21C33.0746 21 25 29.0746 25 39C25 48.9254 33.0746 57 43 57C52.9254 57 61 48.9254 61 39C61 29.0746 52.9254 21 43 21ZM54.7803 29.7451C54.9707 29.9872 55.1582 30.2318 55.3336 30.4852C55.4321 30.627 55.5226 30.7742 55.6163 30.9188C55.7694 31.1565 55.9181 31.3978 56.0583 31.6447C56.1473 31.8029 56.233 31.9636 56.3162 32.1248C56.4443 32.373 56.5659 32.625 56.6809 32.8806C56.7549 33.0465 56.8292 33.2124 56.8973 33.3809C57.0061 33.6497 57.1046 33.924 57.1976 34.2001C57.2529 34.3627 57.3115 34.5242 57.361 34.6897C57.4562 35.0054 57.5349 35.3287 57.6093 35.6528C57.6393 35.7839 57.6774 35.9121 57.7037 36.045C57.7946 36.4958 57.8649 36.9532 57.9136 37.4176C50.9065 36.6779 45.3221 31.0935 44.5824 24.0864C45.0468 24.1351 45.5042 24.2054 45.955 24.2963C46.0879 24.3234 46.2161 24.3607 46.3472 24.3907C46.672 24.4651 46.9946 24.5438 47.3103 24.639C47.4751 24.6885 47.6366 24.7478 47.7999 24.8024C48.076 24.8961 48.3496 24.9939 48.6191 25.1027C48.7876 25.1708 48.9535 25.2451 49.1194 25.3191C49.375 25.4341 49.627 25.5557 49.8752 25.6838C50.0364 25.7677 50.1971 25.8527 50.3553 25.9417C50.6022 26.0812 50.8435 26.2306 51.0812 26.3837C51.2269 26.4763 51.373 26.5679 51.5148 26.6664C51.7682 26.8418 52.0128 27.0293 52.2549 27.2197C52.3691 27.3098 52.4867 27.3937 52.5984 27.4867C53.2931 28.0664 53.9336 28.7076 54.5133 29.4016C54.6063 29.5126 54.6909 29.6309 54.7803 29.7451ZM40.0443 53.7045C39.9114 53.6774 39.7832 53.64 39.6521 53.61C39.3273 53.5356 39.0046 53.4569 38.689 53.3617C38.5242 53.3123 38.3627 53.2529 38.1993 53.1984C37.9232 53.1046 37.6497 53.0068 37.3801 52.8981C37.2117 52.83 37.0458 52.7556 36.8799 52.6816C36.6243 52.5667 36.3723 52.4451 36.124 52.3169C35.9629 52.233 35.8021 52.1481 35.6439 52.0591C35.3971 51.9196 35.1558 51.7701 34.9181 51.6174C34.7723 51.5244 34.6262 51.4329 34.4845 51.3344C34.2311 51.1589 33.9865 50.9714 33.7444 50.781C33.6301 50.6909 33.5126 50.6071 33.4009 50.514C32.7062 49.9343 32.0657 49.2931 31.486 48.5991C31.3929 48.4882 31.3091 48.3699 31.219 48.2556C31.0286 48.0135 30.8411 47.7689 30.6656 47.5155C30.5671 47.3738 30.4763 47.2269 30.3826 47.0819C30.2299 46.8442 30.0812 46.6029 29.9409 46.3561C29.8519 46.1979 29.7662 46.0371 29.6831 45.876C29.5549 45.6277 29.4333 45.3757 29.3184 45.1201C29.2444 44.9542 29.17 44.7883 29.1019 44.6199C28.9932 44.3511 28.8947 44.0768 28.8016 43.8007C28.7463 43.6381 28.6877 43.4769 28.6383 43.311C28.5431 42.9954 28.4644 42.672 28.39 42.3479C28.36 42.2168 28.3219 42.0886 28.2955 41.9557C28.2047 41.5049 28.1344 41.0475 28.0853 40.5831C35.0928 41.3229 40.6771 46.9072 41.4169 53.9147C40.9525 53.8656 40.4951 53.7953 40.0443 53.7045ZM44.4271 53.9279C43.6727 45.2556 36.7451 38.328 28.0729 37.5736C28.75 30.4402 34.4402 24.75 41.5736 24.0729C42.328 32.7451 49.2556 39.6727 57.9279 40.4271C57.2507 47.5605 51.5605 53.2507 44.4271 53.9279Z" fill="white"/>
</svg>
