<svg width="52" height="52" viewBox="0 0 52 52" fill="none" xmlns="http://www.w3.org/2000/svg">
<rect width="52" height="52" rx="26" fill="#303542"/>
<path d="M35.5701 31.7054L34.1434 29.5972C33.9487 29.3106 33.8439 28.9697 33.8431 28.6202V22.5699C33.8431 20.297 32.9641 18.1172 31.3994 16.5101C29.8348 14.9029 27.7127 14 25.5 14C23.2873 14 21.1652 14.9029 19.6006 16.5101C18.0359 18.1172 17.1569 20.297 17.1569 22.5699V28.6202C17.1561 28.9697 17.0513 29.3106 16.8566 29.5972L15.4299 31.7054C15.2139 31.9513 15.0718 32.2561 15.0209 32.5832C14.97 32.9102 15.0124 33.2454 15.1431 33.5481C15.2737 33.8509 15.4869 34.1084 15.7569 34.2893C16.027 34.4703 16.3423 34.567 16.6647 34.5677H21.4119C21.6034 35.5364 22.115 36.4073 22.86 37.0328C23.6051 37.6583 24.5377 38 25.5 38C26.4623 38 27.3949 37.6583 28.14 37.0328C28.885 36.4073 29.3966 35.5364 29.5881 34.5677H34.3353C34.6577 34.567 34.973 34.4703 35.2431 34.2893C35.5131 34.1084 35.7263 33.8509 35.8569 33.5481C35.9876 33.2454 36.03 32.9102 35.9791 32.5832C35.9282 32.2561 35.7861 31.9513 35.5701 31.7054ZM25.5 36.2817C24.9836 36.2802 24.4803 36.1147 24.0591 35.8079C23.6379 35.501 23.3194 35.0678 23.1473 34.5677H27.8527C27.6806 35.0678 27.3621 35.501 26.9409 35.8079C26.5197 36.1147 26.0164 36.2802 25.5 36.2817ZM16.6647 32.8538C16.7024 32.8178 16.736 32.7776 16.7648 32.7338L18.2248 30.5742C18.6143 30.001 18.8239 29.3192 18.8255 28.6202V22.5699C18.8255 20.7516 19.5287 19.0078 20.7804 17.722C22.0321 16.4363 23.7298 15.714 25.5 15.714C27.2702 15.714 28.9679 16.4363 30.2196 17.722C31.4713 19.0078 32.1745 20.7516 32.1745 22.5699V28.6202C32.1761 29.3192 32.3857 30.001 32.7752 30.5742L34.2352 32.7338C34.264 32.7776 34.2976 32.8178 34.3353 32.8538H16.6647Z" fill="white"/>
</svg>
