<svg width="113" height="115" viewBox="0 0 113 115" fill="none" xmlns="http://www.w3.org/2000/svg">
<circle cx="57.0928" cy="56.9072" r="55.2216" fill="#242A38" stroke="white"/>
<mask id="mask0_0_1231" style="mask-type:alpha" maskUnits="userSpaceOnUse" x="0" y="0" width="112" height="112">
<circle cx="55.9072" cy="55.7216" r="54.7216" fill="#242A38" stroke="white" stroke-width="2"/>
</mask>
<g mask="url(#mask0_0_1231)">
<path d="M116.371 97.9625V111.296C80.4089 111.407 8.48454 111.563 8.48454 111.296C8.48454 111.029 10.2442 107.629 11.124 105.963C10.7941 104.74 10.3982 101.963 11.454 100.629C12.7737 98.9625 12.1138 94.9624 12.1138 93.6291C12.1138 92.2957 15.4131 77.9621 16.4029 75.6288C17.1947 73.7621 20.9119 70.1842 22.6715 68.6286C28.7202 66.7397 41.1475 62.8285 42.4672 62.2952C43.7869 61.7618 45.4365 60.2952 46.0964 59.6285L45.4365 45.9616C44.1168 45.6949 42.0273 42.5171 41.1475 40.9615C40.0918 37.2281 42.0274 36.2947 43.1271 36.2947C41.0156 31.4947 42.2473 23.4056 43.1271 19.9611C49.3958 11.961 61.2732 13.961 65.8921 16.2944C70.5111 18.6278 71.171 25.2945 71.5009 25.6279C71.7649 25.8946 70.951 33.2947 70.5111 36.9614C71.061 37.0725 72.2927 37.5614 72.8206 38.6281C73.4805 39.9615 71.8308 42.2948 71.5009 43.6282C71.237 44.6949 68.9715 46.0727 67.8717 46.6282C67.5418 47.6283 66.816 50.7617 66.552 55.2951C66.2881 59.8285 68.6416 61.8507 69.8513 62.2952L80.7389 65.9619C84.4781 66.8508 92.1544 68.8953 92.9462 69.962C93.7381 71.0287 97.2353 73.9621 98.885 75.2954C100.205 79.2955 111.092 92.0735 116.371 97.9625Z" fill="#414158"/>
</g>
<circle cx="25.0825" cy="94.8454" r="20.1546" fill="#242A38"/>
<path d="M27.7929 87.393L32.5353 92.1355" stroke="white" stroke-width="2" stroke-miterlimit="10"/>
<path d="M21.6954 102.975L15.5979 104.33L16.9529 98.233L29.4283 85.7576C29.6824 85.5035 30.027 85.3608 30.3863 85.3608C30.7456 85.3608 31.0902 85.5035 31.3443 85.7576L34.1708 88.5841C34.4248 88.8382 34.5675 89.1828 34.5675 89.5421C34.5675 89.9013 34.4248 90.2459 34.1708 90.5L21.6954 102.975Z" stroke="white" stroke-width="2" stroke-miterlimit="10" stroke-linecap="square"/>
</svg>
