<svg width="321" height="49" viewBox="0 0 321 49" fill="none" xmlns="http://www.w3.org/2000/svg">
<rect y="0.334473" width="320.855" height="47.6698" rx="23.8349" fill="#303542"/>
<path d="M295.489 18.0241C294.184 16.7188 292.448 16 290.603 16C288.757 16 287.021 16.7188 285.716 18.0241C284.411 19.3293 283.692 21.0647 283.692 22.9105C283.692 26.6446 287.223 29.7505 289.12 31.419C289.383 31.6509 289.611 31.8511 289.792 32.0205C290.019 32.2328 290.311 32.3389 290.603 32.3389C290.894 32.3389 291.186 32.2328 291.413 32.0205C291.594 31.8511 291.822 31.6509 292.086 31.419C293.982 29.7504 297.513 26.6446 297.513 22.9105C297.513 21.0647 296.794 19.3293 295.489 18.0241ZM291.453 30.7004C291.184 30.9374 290.951 31.142 290.76 31.3211C290.672 31.4034 290.534 31.4034 290.445 31.3211C290.254 31.142 290.021 30.9373 289.752 30.7004C287.968 29.1317 284.649 26.2118 284.649 22.9106C284.649 19.6278 287.32 16.9571 290.603 16.9571C293.885 16.9571 296.556 19.6278 296.556 22.9106C296.556 26.2118 293.237 29.1317 291.453 30.7004Z" fill="white"/>
<path d="M290.603 19.604C288.923 19.604 287.557 20.9701 287.557 22.6494C287.557 24.3286 288.923 25.6947 290.603 25.6947C292.282 25.6947 293.648 24.3286 293.648 22.6494C293.648 20.9701 292.282 19.604 290.603 19.604ZM290.603 24.7376C289.451 24.7376 288.514 23.8008 288.514 22.6493C288.514 21.4979 289.451 20.5611 290.603 20.5611C291.754 20.5611 292.691 21.4979 292.691 22.6493C292.691 23.8008 291.754 24.7376 290.603 24.7376Z" fill="white"/>
<path d="M184.426 29.1694C184.334 29.1694 184.256 29.1419 184.192 29.0869C184.137 29.0228 184.109 28.9448 184.109 28.8532V24.7416C184.109 23.1649 183.321 22.3765 181.744 22.3765H179.2C179.109 22.3765 179.031 22.349 178.967 22.294C178.912 22.2298 178.884 22.1519 178.884 22.0602V21.6339C178.884 21.5331 178.912 21.4552 178.967 21.4002C179.031 21.3452 179.109 21.3177 179.2 21.3177H181.813C184.151 21.3177 185.32 22.4452 185.32 24.7004V28.8532C185.32 28.9448 185.287 29.0228 185.223 29.0869C185.168 29.1419 185.095 29.1694 185.003 29.1694H184.426ZM179.2 29.1694C179.109 29.1694 179.031 29.1419 178.967 29.0869C178.912 29.0228 178.884 28.9448 178.884 28.8532V24.2329C178.884 24.132 178.912 24.0541 178.967 23.9991C179.031 23.9441 179.109 23.9166 179.2 23.9166H179.778C179.87 23.9166 179.943 23.9487 179.998 24.0128C180.053 24.0678 180.08 24.1412 180.08 24.2329V28.8532C180.08 28.9448 180.053 29.0228 179.998 29.0869C179.943 29.1419 179.87 29.1694 179.778 29.1694H179.2ZM191.633 28.8532C191.643 28.9448 191.615 29.0228 191.551 29.0869C191.487 29.1419 191.409 29.1694 191.317 29.1694H187.659C187.568 29.1694 187.49 29.1419 187.426 29.0869C187.371 29.0228 187.343 28.9448 187.343 28.8532V28.4269C187.343 28.3352 187.371 28.2619 187.426 28.2069C187.49 28.1427 187.568 28.1106 187.659 28.1106H190.368L190.148 24.6041C190.112 24.0266 190.066 23.5957 190.011 23.3115C189.965 23.0182 189.85 22.7844 189.667 22.6102C189.493 22.4361 189.222 22.349 188.856 22.349H188.292C188.2 22.349 188.122 22.3215 188.058 22.2665C188.003 22.2023 187.976 22.1244 187.976 22.0327V21.6064C187.976 21.5148 188.003 21.4414 188.058 21.3864C188.122 21.3222 188.2 21.2902 188.292 21.2902H188.856C189.516 21.2902 190.02 21.4231 190.368 21.6889C190.717 21.9456 190.96 22.3031 191.097 22.7615C191.235 23.2199 191.326 23.8203 191.372 24.5629L191.633 28.8532ZM197.619 28.8532C197.628 28.9448 197.601 29.0228 197.536 29.0869C197.472 29.1419 197.394 29.1694 197.303 29.1694H193.645C193.553 29.1694 193.475 29.1419 193.411 29.0869C193.356 29.0228 193.329 28.9448 193.329 28.8532V28.4269C193.329 28.3352 193.356 28.2619 193.411 28.2069C193.475 28.1427 193.553 28.1106 193.645 28.1106H196.354L196.134 24.6041C196.097 24.0266 196.051 23.5957 195.996 23.3115C195.95 23.0182 195.836 22.7844 195.652 22.6102C195.478 22.4361 195.208 22.349 194.841 22.349H194.277C194.186 22.349 194.108 22.3215 194.044 22.2665C193.989 22.2023 193.961 22.1244 193.961 22.0327V21.6064C193.961 21.5148 193.989 21.4414 194.044 21.3864C194.108 21.3222 194.186 21.2902 194.277 21.2902H194.841C195.501 21.2902 196.005 21.4231 196.354 21.6889C196.702 21.9456 196.945 22.3031 197.083 22.7615C197.22 23.2199 197.312 23.8203 197.358 24.5629L197.619 28.8532ZM205.309 21.3177C205.401 21.3177 205.474 21.3497 205.529 21.4139C205.584 21.4689 205.612 21.5423 205.612 21.6339V25.4292C205.612 26.2359 205.346 26.9601 204.814 27.6018C204.292 28.2435 203.581 28.7019 202.683 28.9769L199.699 29.9257C199.672 29.9349 199.635 29.9395 199.589 29.9395C199.516 29.9395 199.451 29.9166 199.396 29.8707C199.341 29.8249 199.314 29.7653 199.314 29.692V29.2657C199.314 29.0548 199.387 28.9265 199.534 28.8807L201.335 28.2756L199.548 21.8677C199.502 21.7119 199.479 21.6202 199.479 21.5927C199.479 21.5193 199.506 21.4552 199.561 21.4002C199.617 21.3452 199.681 21.3177 199.754 21.3177H200.387C200.469 21.3177 200.538 21.3406 200.593 21.3864C200.648 21.4231 200.684 21.4689 200.703 21.5239L202.463 27.9043C203.187 27.6568 203.691 27.2993 203.976 26.8318C204.269 26.3551 204.416 25.7638 204.416 25.0579V21.6339C204.416 21.5423 204.443 21.4689 204.498 21.4139C204.562 21.3497 204.64 21.3177 204.732 21.3177H205.309ZM212.545 29.1694C212.453 29.1694 212.375 29.1419 212.311 29.0869C212.256 29.0228 212.229 28.9448 212.229 28.8532V24.7416C212.229 23.1649 211.44 22.3765 209.864 22.3765H208.09C207.998 22.3765 207.92 22.349 207.856 22.294C207.801 22.2298 207.773 22.1519 207.773 22.0602V21.6339C207.773 21.5423 207.801 21.4689 207.856 21.4139C207.92 21.3497 207.998 21.3177 208.09 21.3177H209.932C212.27 21.3177 213.439 22.4361 213.439 24.6729V28.8532C213.439 28.9448 213.407 29.0228 213.343 29.0869C213.288 29.1419 213.214 29.1694 213.123 29.1694H212.545ZM219.547 30.2008C219.473 30.2008 219.414 30.1733 219.368 30.1182C219.331 30.0632 219.318 29.9945 219.327 29.912L219.643 27.9456C219.68 27.6798 219.808 27.5468 220.028 27.5468H220.949C221.013 27.5468 221.064 27.5697 221.101 27.6156C221.146 27.6614 221.169 27.7164 221.169 27.7806C221.169 27.8264 221.156 27.8998 221.128 28.0006L220.399 29.8845C220.353 29.9945 220.303 30.0724 220.248 30.1182C220.193 30.1733 220.111 30.2008 220.001 30.2008H219.547ZM226.795 29.1694C226.703 29.1694 226.625 29.1419 226.561 29.0869C226.506 29.0228 226.479 28.9448 226.479 28.8532V24.7416C226.479 23.1649 225.69 22.3765 224.114 22.3765H222.34C222.248 22.3765 222.17 22.349 222.106 22.294C222.051 22.2298 222.023 22.1519 222.023 22.0602V21.6339C222.023 21.5423 222.051 21.4689 222.106 21.4139C222.17 21.3497 222.248 21.3177 222.34 21.3177H224.182C226.52 21.3177 227.689 22.4361 227.689 24.6729V28.8532C227.689 28.9448 227.657 29.0228 227.593 29.0869C227.538 29.1419 227.464 29.1694 227.372 29.1694H226.795ZM233.699 21.3177C234.267 21.3177 234.771 21.4552 235.211 21.7302C235.651 21.996 235.995 22.3811 236.243 22.8853C236.499 23.3895 236.628 23.9853 236.628 24.6729V28.8532C236.628 28.9448 236.6 29.0228 236.545 29.0869C236.49 29.1419 236.417 29.1694 236.325 29.1694H232.777C232.686 29.1694 232.608 29.1419 232.544 29.0869C232.489 29.0228 232.461 28.9448 232.461 28.8532V28.4269C232.461 28.3352 232.489 28.2619 232.544 28.2069C232.608 28.1427 232.686 28.1106 232.777 28.1106H235.431V24.7554C235.431 24.2879 235.349 23.8753 235.184 23.5178C235.028 23.1603 234.808 22.8853 234.524 22.6928C234.24 22.4911 233.919 22.3902 233.561 22.3902H232.09L231.031 28.8394C231.022 28.9311 230.985 29.009 230.921 29.0732C230.857 29.1373 230.779 29.1694 230.687 29.1694H230.124C230.032 29.1694 229.959 29.1373 229.904 29.0732C229.858 29.009 229.839 28.9311 229.849 28.8394L230.949 22.404H230.247C230.156 22.404 230.078 22.3765 230.014 22.3215C229.959 22.2573 229.931 22.1794 229.931 22.0877V21.6339C229.931 21.5423 229.959 21.4689 230.014 21.4139C230.078 21.3497 230.156 21.3177 230.247 21.3177H233.699ZM242.096 21.3177C242.187 21.3177 242.261 21.3497 242.316 21.4139C242.371 21.4689 242.398 21.5423 242.398 21.6339V22.0602C242.398 22.1519 242.371 22.2298 242.316 22.294C242.261 22.349 242.187 22.3765 242.096 22.3765H241.257C241.128 22.5232 241.028 22.7386 240.954 23.0228C240.881 23.307 240.844 23.637 240.844 24.0128V28.8669C240.844 28.9586 240.812 29.0319 240.748 29.0869C240.684 29.1419 240.606 29.1694 240.514 29.1694H239.95C239.859 29.1694 239.785 29.1419 239.73 29.0869C239.675 29.0319 239.648 28.9586 239.648 28.8669V23.9303C239.648 23.5636 239.675 23.2474 239.73 22.9815C239.795 22.7157 239.882 22.514 239.992 22.3765H238.795C238.704 22.3765 238.626 22.349 238.562 22.294C238.507 22.2298 238.479 22.1519 238.479 22.0602V21.6339C238.479 21.5423 238.507 21.4689 238.562 21.4139C238.626 21.3497 238.704 21.3177 238.795 21.3177H242.096ZM253.703 29.1694C253.611 29.1694 253.533 29.1419 253.469 29.0869C253.414 29.0228 253.387 28.9448 253.387 28.8532V24.7416C253.387 23.1649 252.598 22.3765 251.022 22.3765H248.478C248.386 22.3765 248.308 22.349 248.244 22.294C248.189 22.2298 248.161 22.1519 248.161 22.0602V21.6339C248.161 21.5331 248.189 21.4552 248.244 21.4002C248.308 21.3452 248.386 21.3177 248.478 21.3177H251.09C253.428 21.3177 254.597 22.4452 254.597 24.7004V28.8532C254.597 28.9448 254.565 29.0228 254.5 29.0869C254.445 29.1419 254.372 29.1694 254.28 29.1694H253.703ZM248.478 29.1694C248.386 29.1694 248.308 29.1419 248.244 29.0869C248.189 29.0228 248.161 28.9448 248.161 28.8532V24.2329C248.161 24.132 248.189 24.0541 248.244 23.9991C248.308 23.9441 248.386 23.9166 248.478 23.9166H249.055C249.147 23.9166 249.22 23.9487 249.275 24.0128C249.33 24.0678 249.358 24.1412 249.358 24.2329V28.8532C249.358 28.9448 249.33 29.0228 249.275 29.0869C249.22 29.1419 249.147 29.1694 249.055 29.1694H248.478ZM257.39 29.1694C257.299 29.1694 257.221 29.1419 257.157 29.0869C257.102 29.0228 257.074 28.9448 257.074 28.8532V21.6339C257.074 21.5331 257.102 21.4552 257.157 21.4002C257.221 21.3452 257.299 21.3177 257.39 21.3177H257.982C258.073 21.3177 258.147 21.3497 258.202 21.4139C258.266 21.4689 258.298 21.5423 258.298 21.6339V28.8532C258.298 28.9448 258.266 29.0228 258.202 29.0869C258.147 29.1419 258.073 29.1694 257.982 29.1694H257.39ZM264.694 28.8532C264.703 28.9448 264.675 29.0228 264.611 29.0869C264.547 29.1419 264.469 29.1694 264.378 29.1694H260.72C260.628 29.1694 260.55 29.1419 260.486 29.0869C260.431 29.0228 260.403 28.9448 260.403 28.8532V28.4269C260.403 28.3352 260.431 28.2619 260.486 28.2069C260.55 28.1427 260.628 28.1106 260.72 28.1106H263.429L263.209 24.6041C263.172 24.0266 263.126 23.5957 263.071 23.3115C263.025 23.0182 262.911 22.7844 262.727 22.6102C262.553 22.4361 262.283 22.349 261.916 22.349H261.352C261.261 22.349 261.183 22.3215 261.119 22.2665C261.064 22.2023 261.036 22.1244 261.036 22.0327V21.6064C261.036 21.5148 261.064 21.4414 261.119 21.3864C261.183 21.3222 261.261 21.2902 261.352 21.2902H261.916C262.576 21.2902 263.08 21.4231 263.429 21.6889C263.777 21.9456 264.02 22.3031 264.157 22.7615C264.295 23.2199 264.387 23.8203 264.433 24.5629L264.694 28.8532Z" fill="white"/>
<path d="M36.1757 19.5857L34.5595 21.1875C33.2706 22.4649 32.6262 23.1036 32.527 23.8821C32.5027 24.0728 32.5027 24.2658 32.527 24.4566C32.6262 25.2351 33.2706 25.8738 34.5595 27.1512L36.1757 28.753" stroke="white" stroke-width="1.37509" stroke-linecap="round"/>
</svg>
