<svg width="321" height="49" viewBox="0 0 321 49" fill="none" xmlns="http://www.w3.org/2000/svg">
<rect y="0.334473" width="320.855" height="47.6698" rx="23.8349" fill="#303542"/>
<path d="M190.552 29.1694C190.46 29.1694 190.382 29.1419 190.318 29.0869C190.263 29.0228 190.235 28.9448 190.235 28.8532V28.4131C190.235 28.2023 190.35 28.0006 190.579 27.8081L193.494 24.8929C194.2 24.3062 194.686 23.8295 194.952 23.4628C195.218 23.0869 195.351 22.6928 195.351 22.2802C195.351 21.7485 195.199 21.3314 194.897 21.0289C194.603 20.7264 194.173 20.5751 193.604 20.5751C193.073 20.5751 192.646 20.7355 192.325 21.0564C192.005 21.3681 191.807 21.7852 191.734 22.3077C191.716 22.4177 191.67 22.5002 191.597 22.5552C191.532 22.6011 191.459 22.624 191.377 22.624H190.662C190.579 22.624 190.51 22.6011 190.455 22.5552C190.4 22.5002 190.373 22.4361 190.373 22.3627C190.391 21.8677 190.524 21.3956 190.772 20.9464C191.019 20.488 191.381 20.1167 191.858 19.8326C192.344 19.5392 192.926 19.3925 193.604 19.3925C194.64 19.3925 195.419 19.663 195.942 20.2038C196.474 20.7355 196.739 21.4139 196.739 22.239C196.739 22.8165 196.593 23.339 196.299 23.8066C196.015 24.2649 195.571 24.76 194.966 25.2917L192.325 27.9731H196.616C196.717 27.9731 196.794 28.0052 196.849 28.0694C196.914 28.1244 196.946 28.1977 196.946 28.2894V28.8532C196.946 28.9448 196.914 29.0228 196.849 29.0869C196.785 29.1419 196.707 29.1694 196.616 29.1694H190.552ZM203.424 29.1694C203.333 29.1694 203.255 29.1419 203.191 29.0869C203.136 29.0228 203.108 28.9448 203.108 28.8532V26.873H198.653C198.561 26.873 198.483 26.8455 198.419 26.7905C198.364 26.7264 198.337 26.6484 198.337 26.5568V26.0067C198.337 25.8692 198.387 25.7317 198.488 25.5942L202.613 19.7776C202.659 19.7042 202.728 19.6492 202.819 19.6125C202.911 19.5667 203.012 19.5438 203.122 19.5438H204.112C204.204 19.5438 204.277 19.5759 204.332 19.6401C204.396 19.6951 204.428 19.7684 204.428 19.8601V25.6767H205.666C205.757 25.6767 205.835 25.7088 205.9 25.773C205.964 25.828 205.996 25.9013 205.996 25.993V26.5568C205.996 26.6484 205.964 26.7264 205.9 26.7905C205.845 26.8455 205.771 26.873 205.68 26.873H204.428V28.8532C204.428 28.9448 204.396 29.0228 204.332 29.0869C204.277 29.1419 204.204 29.1694 204.112 29.1694H203.424ZM203.122 25.7042V20.9876L199.808 25.7042H203.122ZM207.469 30.3245C207.396 30.3245 207.332 30.297 207.277 30.242C207.222 30.187 207.194 30.1228 207.194 30.0495C207.194 30.0128 207.208 29.9578 207.235 29.8845L211.938 18.6087C212.012 18.4437 212.131 18.3612 212.296 18.3612H212.832C212.905 18.3612 212.969 18.3887 213.024 18.4437C213.079 18.4987 213.107 18.5629 213.107 18.6362C213.107 18.7004 213.098 18.7554 213.079 18.8012L208.363 30.077C208.29 30.242 208.17 30.3245 208.005 30.3245H207.469ZM218.632 29.1694C218.54 29.1694 218.462 29.1419 218.398 29.0869C218.343 29.0228 218.315 28.9448 218.315 28.8532V26.873H213.86C213.768 26.873 213.69 26.8455 213.626 26.7905C213.571 26.7264 213.544 26.6484 213.544 26.5568V26.0067C213.544 25.8692 213.594 25.7317 213.695 25.5942L217.82 19.7776C217.866 19.7042 217.935 19.6492 218.026 19.6125C218.118 19.5667 218.219 19.5438 218.329 19.5438H219.319C219.411 19.5438 219.484 19.5759 219.539 19.6401C219.603 19.6951 219.635 19.7684 219.635 19.8601V25.6767H220.873C220.965 25.6767 221.043 25.7088 221.107 25.773C221.171 25.828 221.203 25.9013 221.203 25.993V26.5568C221.203 26.6484 221.171 26.7264 221.107 26.7905C221.052 26.8455 220.978 26.873 220.887 26.873H219.635V28.8532C219.635 28.9448 219.603 29.0228 219.539 29.0869C219.484 29.1419 219.411 29.1694 219.319 29.1694H218.632ZM218.329 25.7042V20.9876L215.015 25.7042H218.329ZM222.676 30.3245C222.603 30.3245 222.539 30.297 222.484 30.242C222.429 30.187 222.401 30.1228 222.401 30.0495C222.401 30.0128 222.415 29.9578 222.442 29.8845L227.145 18.6087C227.219 18.4437 227.338 18.3612 227.503 18.3612H228.039C228.112 18.3612 228.177 18.3887 228.232 18.4437C228.287 18.4987 228.314 18.5629 228.314 18.6362C228.314 18.7004 228.305 18.7554 228.287 18.8012L223.57 30.077C223.497 30.242 223.378 30.3245 223.213 30.3245H222.676ZM229.892 29.1694C229.8 29.1694 229.722 29.1419 229.658 29.0869C229.603 29.0228 229.576 28.9448 229.576 28.8532V28.4131C229.576 28.2023 229.69 28.0006 229.92 27.8081L232.835 24.8929C233.541 24.3062 234.026 23.8295 234.292 23.4628C234.558 23.0869 234.691 22.6928 234.691 22.2802C234.691 21.7485 234.54 21.3314 234.237 21.0289C233.944 20.7264 233.513 20.5751 232.945 20.5751C232.413 20.5751 231.987 20.7355 231.666 21.0564C231.345 21.3681 231.148 21.7852 231.075 22.3077C231.056 22.4177 231.01 22.5002 230.937 22.5552C230.873 22.6011 230.8 22.624 230.717 22.624H230.002C229.92 22.624 229.851 22.6011 229.796 22.5552C229.741 22.5002 229.713 22.4361 229.713 22.3627C229.732 21.8677 229.865 21.3956 230.112 20.9464C230.36 20.488 230.722 20.1167 231.198 19.8326C231.684 19.5392 232.266 19.3925 232.945 19.3925C233.981 19.3925 234.76 19.663 235.282 20.2038C235.814 20.7355 236.08 21.4139 236.08 22.239C236.08 22.8165 235.933 23.339 235.64 23.8066C235.356 24.2649 234.911 24.76 234.306 25.2917L231.666 27.9731H235.956C236.057 27.9731 236.135 28.0052 236.19 28.0694C236.254 28.1244 236.286 28.1977 236.286 28.2894V28.8532C236.286 28.9448 236.254 29.0228 236.19 29.0869C236.126 29.1419 236.048 29.1694 235.956 29.1694H229.892ZM241.483 29.3069C240.759 29.3069 240.131 29.1924 239.599 28.9632C239.076 28.7248 238.678 28.4177 238.403 28.0419C238.137 27.666 237.995 27.2718 237.976 26.8593C237.976 26.7768 238.004 26.7126 238.059 26.6668C238.114 26.6118 238.183 26.5843 238.265 26.5843H238.939C239.131 26.5843 239.26 26.6851 239.324 26.8868C239.443 27.3451 239.7 27.6706 240.094 27.8631C240.488 28.0464 240.951 28.1381 241.483 28.1381C242.134 28.1381 242.652 27.9869 243.037 27.6843C243.422 27.3726 243.614 26.928 243.614 26.3505C243.614 25.2413 242.94 24.6866 241.593 24.6866H240.287C240.195 24.6866 240.117 24.6591 240.053 24.6041C239.998 24.54 239.97 24.462 239.97 24.3704V23.9991C239.97 23.8707 240.021 23.747 240.122 23.6278L242.789 20.7126H238.733C238.641 20.7126 238.563 20.6851 238.499 20.6301C238.444 20.5659 238.416 20.488 238.416 20.3964V19.8738C238.416 19.7821 238.444 19.7042 238.499 19.6401C238.563 19.5759 238.641 19.5438 238.733 19.5438H244.219C244.32 19.5438 244.398 19.5759 244.453 19.6401C244.517 19.6951 244.549 19.773 244.549 19.8738V20.3688C244.549 20.4789 244.499 20.5843 244.398 20.6851L241.744 23.6416L241.964 23.6553C242.899 23.6828 243.637 23.9258 244.178 24.3841C244.719 24.8425 244.989 25.5117 244.989 26.3917C244.989 26.9876 244.838 27.5056 244.536 27.9456C244.233 28.3856 243.816 28.7248 243.284 28.9632C242.753 29.1924 242.152 29.3069 241.483 29.3069ZM250.761 30.2008C250.687 30.2008 250.628 30.1733 250.582 30.1182C250.545 30.0632 250.531 29.9945 250.541 29.912L250.857 27.9456C250.894 27.6798 251.022 27.5468 251.242 27.5468H252.163C252.227 27.5468 252.278 27.5697 252.315 27.6156C252.36 27.6614 252.383 27.7164 252.383 27.7806C252.383 27.8264 252.37 27.8998 252.342 28.0006L251.613 29.8845C251.567 29.9945 251.517 30.0724 251.462 30.1182C251.407 30.1733 251.324 30.2008 251.214 30.2008H250.761ZM255.065 29.1694C254.973 29.1694 254.895 29.1419 254.831 29.0869C254.776 29.0228 254.749 28.9448 254.749 28.8532V21.6339C254.749 21.5331 254.776 21.4552 254.831 21.4002C254.895 21.3452 254.973 21.3177 255.065 21.3177H257.664C259.983 21.3177 261.143 22.4361 261.143 24.6729V28.8532C261.143 28.9448 261.111 29.0228 261.047 29.0869C260.992 29.1419 260.918 29.1694 260.827 29.1694H255.065ZM259.96 28.1106V24.7416C259.96 23.1649 259.172 22.3765 257.595 22.3765H255.876V28.1106H259.96ZM263.938 29.1694C263.846 29.1694 263.768 29.1419 263.704 29.0869C263.649 29.0228 263.621 28.9448 263.621 28.8532V21.6339C263.621 21.5331 263.649 21.4552 263.704 21.4002C263.768 21.3452 263.846 21.3177 263.938 21.3177H264.529C264.621 21.3177 264.694 21.3497 264.749 21.4139C264.813 21.4689 264.845 21.5423 264.845 21.6339V28.8532C264.845 28.9448 264.813 29.0228 264.749 29.0869C264.694 29.1419 264.621 29.1694 264.529 29.1694H263.938ZM267.624 25.9792C267.533 25.9792 267.455 25.9517 267.391 25.8967C267.336 25.8417 267.308 25.7684 267.308 25.6767V21.6339C267.308 21.5331 267.336 21.4552 267.391 21.4002C267.455 21.3452 267.533 21.3177 267.624 21.3177H268.216C268.307 21.3177 268.381 21.3497 268.436 21.4139C268.5 21.4689 268.532 21.5423 268.532 21.6339V25.6767C268.532 25.7684 268.5 25.8417 268.436 25.8967C268.381 25.9517 268.307 25.9792 268.216 25.9792H267.624ZM276.541 29.1694C276.449 29.1694 276.372 29.1419 276.307 29.0869C276.252 29.0228 276.225 28.9448 276.225 28.8532V24.7416C276.225 23.1649 275.436 22.3765 273.86 22.3765H271.316C271.224 22.3765 271.146 22.349 271.082 22.294C271.027 22.2298 271 22.1519 271 22.0602V21.6339C271 21.5331 271.027 21.4552 271.082 21.4002C271.146 21.3452 271.224 21.3177 271.316 21.3177H273.928C276.266 21.3177 277.435 22.4452 277.435 24.7004V28.8532C277.435 28.9448 277.403 29.0228 277.339 29.0869C277.284 29.1419 277.21 29.1694 277.119 29.1694H276.541ZM271.316 29.1694C271.224 29.1694 271.146 29.1419 271.082 29.0869C271.027 29.0228 271 28.9448 271 28.8532V24.2329C271 24.132 271.027 24.0541 271.082 23.9991C271.146 23.9441 271.224 23.9166 271.316 23.9166H271.893C271.985 23.9166 272.058 23.9487 272.113 24.0128C272.168 24.0678 272.196 24.1412 272.196 24.2329V28.8532C272.196 28.9448 272.168 29.0228 272.113 29.0869C272.058 29.1419 271.985 29.1694 271.893 29.1694H271.316Z" fill="white"/>
</svg>
