<svg width="321" height="49" viewBox="0 0 321 49" fill="none" xmlns="http://www.w3.org/2000/svg">
<rect y="0.334473" width="320.855" height="47.6698" rx="23.8349" fill="#303542"/>
<path d="M290.603 16.0444C288.996 16.0444 287.425 16.521 286.089 17.4137C284.753 18.3065 283.711 19.5755 283.096 21.0601C282.481 22.5448 282.32 24.1784 282.634 25.7545C282.947 27.3306 283.721 28.7784 284.857 29.9147C285.994 31.051 287.441 31.8248 289.018 32.1383C290.594 32.4518 292.227 32.2909 293.712 31.676C295.197 31.061 296.466 30.0196 297.358 28.6834C298.251 27.3473 298.728 25.7764 298.728 24.1694C298.725 22.0152 297.869 19.9499 296.345 18.4267C294.822 16.9035 292.757 16.0467 290.603 16.0444ZM291.228 19.121L293.164 17.789C294.273 18.2356 295.247 18.9625 295.991 19.8983L295.366 22.003C295.35 22.003 295.334 22.0108 295.318 22.0163L293.535 22.5952C293.509 22.6038 293.483 22.6142 293.457 22.6265L291.228 21.0929V19.121ZM288.043 17.789L289.978 19.121V21.0929L287.746 22.6296C287.721 22.6173 287.695 22.6069 287.668 22.5983L285.885 22.0194C285.87 22.014 285.853 22.0101 285.838 22.0062L285.213 19.9015C285.957 18.9639 286.933 18.2359 288.043 17.789ZM287.028 27.8741H284.814C284.166 26.8664 283.794 25.706 283.736 24.5093L285.455 23.1905C285.47 23.1971 285.485 23.2028 285.5 23.2077L287.284 23.7874C287.308 23.7946 287.332 23.8003 287.357 23.8046L288.2 26.2593C288.188 26.2733 288.176 26.2874 288.165 26.3022L287.064 27.8187C287.051 27.8365 287.039 27.855 287.028 27.8741ZM292.375 30.8101C291.214 31.1194 289.992 31.1194 288.83 30.8101L288.044 28.5913C288.054 28.5788 288.065 28.5671 288.075 28.5538L289.177 27.0366C289.19 27.0191 289.202 27.0008 289.213 26.9819H291.993C292.003 27.0008 292.015 27.0191 292.028 27.0366L293.131 28.5538C293.14 28.5671 293.151 28.5788 293.161 28.5913L292.375 30.8101ZM294.178 27.8718C294.167 27.8527 294.155 27.8341 294.142 27.8163L293.039 26.3022C293.028 26.2874 293.017 26.2733 293.005 26.2593L293.848 23.8046C293.873 23.8003 293.897 23.7946 293.921 23.7874L295.704 23.2077C295.72 23.2028 295.735 23.1971 295.75 23.1905L297.468 24.5093C297.411 25.706 297.039 26.8664 296.391 27.8741L294.178 27.8718Z" fill="white"/>
<path d="M224.557 21.3177C225.4 21.3177 226.065 21.4368 226.551 21.6752C227.037 21.9135 227.39 22.294 227.61 22.8165C227.83 23.3299 227.94 24.0266 227.94 24.9067C227.94 26.0801 227.651 26.9968 227.073 27.6568C226.505 28.3077 225.758 28.789 224.832 29.1007L224.254 29.2932C224.236 29.3024 224.204 29.3069 224.158 29.3069C224.094 29.3069 224.034 29.284 223.979 29.2382C223.933 29.1924 223.911 29.1282 223.911 29.0457V28.4544C223.911 28.2894 224.011 28.1656 224.213 28.0831L224.749 27.8768C225.391 27.6293 225.882 27.281 226.221 26.8318C226.56 26.3826 226.729 25.7225 226.729 24.8516C226.729 24.2374 226.656 23.7562 226.509 23.4078C226.363 23.0503 226.12 22.7936 225.781 22.6377C225.441 22.4819 224.979 22.404 224.392 22.404H223.966H223.924L222.659 22.3902C222.568 22.3902 222.49 22.3627 222.425 22.3077C222.37 22.2527 222.343 22.1794 222.343 22.0877V19.7226C222.343 19.6309 222.37 19.5575 222.425 19.5025C222.49 19.4384 222.568 19.4063 222.659 19.4063H223.196C223.287 19.4063 223.361 19.4384 223.416 19.5025C223.48 19.5575 223.512 19.6309 223.512 19.7226V21.3177H224.557ZM234.698 28.8532C234.707 28.9448 234.679 29.0228 234.615 29.0869C234.551 29.1419 234.473 29.1694 234.381 29.1694H233.79C233.607 29.1694 233.501 29.064 233.474 28.8532L233.158 27.2443C232.818 27.7668 232.429 28.1748 231.989 28.4681C231.65 28.6973 231.333 28.8761 231.04 29.0044C230.747 29.1236 230.435 29.2153 230.105 29.2794L230.009 29.2932C229.853 29.2932 229.775 29.2199 229.775 29.0732V28.4269C229.775 28.271 229.871 28.1564 230.064 28.0831C230.091 28.0739 230.27 28.0144 230.6 27.9043C230.939 27.7852 231.242 27.6385 231.507 27.4643C231.782 27.2901 232.053 27.0518 232.319 26.7493C232.585 26.4376 232.772 26.1488 232.882 25.883L232.635 24.6316C232.525 24.0908 232.406 23.6645 232.277 23.3528C232.158 23.0319 231.993 22.789 231.782 22.624C231.572 22.459 231.297 22.3765 230.957 22.3765H230.449C230.357 22.3765 230.279 22.349 230.215 22.294C230.16 22.2298 230.132 22.1519 230.132 22.0602V21.6064C230.132 21.5148 230.16 21.4414 230.215 21.3864C230.279 21.3222 230.357 21.2902 230.449 21.2902H230.957C231.544 21.2902 232.025 21.4093 232.401 21.6477C232.777 21.886 233.075 22.239 233.295 22.7065C233.515 23.174 233.703 23.7928 233.859 24.5629L234.698 28.8532ZM240.453 29.1694C240.361 29.1694 240.284 29.1419 240.219 29.0869C240.164 29.0228 240.137 28.9448 240.137 28.8532V24.7416C240.137 23.1649 239.348 22.3765 237.772 22.3765H235.998C235.906 22.3765 235.828 22.349 235.764 22.294C235.709 22.2298 235.682 22.1519 235.682 22.0602V21.6339C235.682 21.5423 235.709 21.4689 235.764 21.4139C235.828 21.3497 235.906 21.3177 235.998 21.3177H237.84C240.178 21.3177 241.347 22.4361 241.347 24.6729V28.8532C241.347 28.9448 241.315 29.0228 241.251 29.0869C241.196 29.1419 241.122 29.1694 241.031 29.1694H240.453ZM244.139 29.1694C244.048 29.1694 243.97 29.1419 243.905 29.0869C243.85 29.0228 243.823 28.9448 243.823 28.8532V21.6339C243.823 21.5331 243.85 21.4552 243.905 21.4002C243.97 21.3452 244.048 21.3177 244.139 21.3177H244.731C244.822 21.3177 244.896 21.3497 244.951 21.4139C245.015 21.4689 245.047 21.5423 245.047 21.6339V28.8532C245.047 28.9448 245.015 29.0228 244.951 29.0869C244.896 29.1419 244.822 29.1694 244.731 29.1694H244.139ZM253.244 21.3177C253.336 21.3177 253.409 21.3497 253.464 21.4139C253.528 21.4689 253.56 21.5423 253.56 21.6339V22.0602C253.56 22.1519 253.528 22.2298 253.464 22.294C253.409 22.349 253.336 22.3765 253.244 22.3765H252.405C252.277 22.5232 252.176 22.7386 252.103 23.0228C252.029 23.307 251.993 23.637 251.993 24.0128V28.8669C251.993 28.9586 251.961 29.0319 251.896 29.0869C251.841 29.1419 251.768 29.1694 251.676 29.1694H251.099C251.007 29.1694 250.934 29.1419 250.879 29.0869C250.824 29.0319 250.796 28.9586 250.796 28.8669V23.9303C250.796 23.5636 250.824 23.2474 250.879 22.9815C250.943 22.7157 251.03 22.514 251.14 22.3765H247.359C247.267 22.3765 247.189 22.349 247.125 22.294C247.07 22.2298 247.042 22.1519 247.042 22.0602V21.6339C247.042 21.5423 247.07 21.4689 247.125 21.4139C247.189 21.3497 247.267 21.3177 247.359 21.3177H253.244ZM255.976 29.1694C255.884 29.1694 255.806 29.1419 255.742 29.0869C255.687 29.0228 255.659 28.9448 255.659 28.8532V28.3994C255.659 28.3077 255.687 28.2344 255.742 28.1794C255.806 28.1152 255.884 28.0831 255.976 28.0831H257.942C258.749 28.0831 259.34 27.886 259.716 27.4918C260.092 27.0885 260.294 26.4972 260.321 25.718C260.33 25.5896 260.335 25.4292 260.335 25.2367C260.335 25.0533 260.33 24.8975 260.321 24.7691C260.294 23.9899 260.092 23.4032 259.716 23.009C259.34 22.6057 258.749 22.404 257.942 22.404H255.976C255.884 22.404 255.806 22.3765 255.742 22.3215C255.687 22.2573 255.659 22.1794 255.659 22.0877V21.6339C255.659 21.5423 255.687 21.4689 255.742 21.4139C255.806 21.3497 255.884 21.3177 255.976 21.3177H258.011C259.175 21.3177 260.037 21.6064 260.596 22.184C261.155 22.7615 261.458 23.6049 261.504 24.7141C261.513 24.8425 261.517 25.0167 261.517 25.2367C261.517 25.4659 261.513 25.6446 261.504 25.773C261.458 26.8822 261.155 27.7256 260.596 28.3031C260.037 28.8807 259.175 29.1694 258.011 29.1694H255.976Z" fill="white"/>
<path d="M26.6691 22.3359L28.2709 23.9521C29.5483 25.241 30.187 25.8854 30.9655 25.9846C31.1563 26.0089 31.3493 26.0089 31.54 25.9846C32.3185 25.8854 32.9572 25.241 34.2346 23.9521L35.8364 22.3359" stroke="white" stroke-width="1.37509" stroke-linecap="round"/>
</svg>
