<svg width="16" height="16" viewBox="0 0 16 16" fill="none" xmlns="http://www.w3.org/2000/svg">
<g clip-path="url(#clip0_0_1151)">
<path d="M9.30131 9.47187C9.13087 9.65477 8.92534 9.80148 8.69698 9.90323C8.46861 10.005 8.22209 10.0597 7.97212 10.0641C7.72215 10.0685 7.47386 10.0225 7.24204 9.9289C7.01023 9.83527 6.79965 9.69591 6.62287 9.51912C6.44609 9.34234 6.30672 9.13176 6.21309 8.89995C6.11946 8.66814 6.07347 8.41984 6.07789 8.16987C6.0823 7.9199 6.13701 7.67338 6.23876 7.44502C6.34051 7.21665 6.48722 7.01112 6.67013 6.84069M11.6719 11.8424C10.6111 12.651 9.31937 13.099 7.98572 13.1208C3.64179 13.1208 1.15955 8.15628 1.15955 8.15628C1.93146 6.71775 3.00208 5.46094 4.29958 4.47014L11.6719 11.8424ZM6.68254 3.34072C7.10969 3.24074 7.54702 3.19076 7.98572 3.19179C12.3296 3.19179 14.8119 8.15628 14.8119 8.15628C14.4352 8.86099 13.986 9.52445 13.4715 10.1359L6.68254 3.34072Z" stroke="#797979" stroke-width="1.31413" stroke-linecap="round" stroke-linejoin="round"/>
<path d="M1.15955 1.33011L14.8119 14.9825" stroke="#797979" stroke-width="1.31413" stroke-linecap="round" stroke-linejoin="round"/>
</g>
<defs>
<clipPath id="clip0_0_1151">
<rect width="14.8935" height="14.8935" fill="white" transform="translate(0.539124 0.709564)"/>
</clipPath>
</defs>
</svg>
