<svg width="144" height="50" viewBox="0 0 144 50" fill="none" xmlns="http://www.w3.org/2000/svg">
<rect width="143.678" height="49.0608" rx="24.5304" fill="#003B87"/>
<g clip-path="url(#clip0_0_1171)">
<path d="M46.0339 24.3567C46.0339 18.7924 41.5232 14.2817 35.9589 14.2817C30.3946 14.2817 25.8839 18.7924 25.8839 24.3567C25.8839 29.3854 29.5682 33.5535 34.3847 34.3093V27.269H31.8266V24.3567H34.3847V22.1371C34.3847 19.612 35.8888 18.2173 38.1902 18.2173C39.2924 18.2173 40.4454 18.414 40.4454 18.414V20.8934H39.175C37.9234 20.8934 37.5331 21.6701 37.5331 22.4668V24.3567H40.3274L39.8807 27.269H37.5331V34.3093C42.3496 33.5535 46.0339 29.3854 46.0339 24.3567Z" fill="white"/>
</g>
<path d="M56.1526 29.0305H57.5508V25.3018H60.3718V24.1612H57.5508V21.6468H61.169V20.5062H56.1526V29.0305ZM62.2616 25.6207C62.2616 27.7058 63.6721 29.1409 65.426 29.1409C66.5544 29.1409 67.3639 28.6012 67.7932 28.0247V29.0305H69.2037V22.2723H67.7932V23.2536C67.3762 22.7016 66.5912 22.162 65.4505 22.162C63.6721 22.162 62.2616 23.5357 62.2616 25.6207ZM67.7932 25.6453C67.7932 27.1048 66.7997 27.9266 65.7449 27.9266C64.7024 27.9266 63.6966 27.0803 63.6966 25.6207C63.6966 24.1612 64.7024 23.3762 65.7449 23.3762C66.7997 23.3762 67.7932 24.198 67.7932 25.6453ZM70.837 25.6453C70.837 27.7672 72.2107 29.1409 74.1486 29.1409C75.8044 29.1409 76.8837 28.221 77.2639 26.8963H75.7553C75.4977 27.5954 74.9826 27.9634 74.1486 27.9634C73.0202 27.9634 72.272 27.1294 72.272 25.6453C72.272 24.1734 73.0202 23.3394 74.1486 23.3394C74.9826 23.3394 75.5223 23.7564 75.7553 24.4065H77.2639C76.8837 22.9837 75.8044 22.162 74.1486 22.162C72.2107 22.162 70.837 23.5357 70.837 25.6453ZM81.7657 23.3394C82.8083 23.3394 83.63 24.0017 83.6546 25.0443H79.9137C80.0609 23.9772 80.8213 23.3394 81.7657 23.3394ZM84.9301 27.019H83.4215C83.164 27.5464 82.6856 27.9634 81.827 27.9634C80.7968 27.9634 79.9995 27.2888 79.9014 26.1727H85.0651C85.1019 25.9396 85.1141 25.7189 85.1141 25.4858C85.1141 23.4989 83.7527 22.162 81.827 22.162C79.8278 22.162 78.4541 23.5234 78.4541 25.6453C78.4541 27.7672 79.8891 29.1409 81.827 29.1409C83.4828 29.1409 84.5499 28.1964 84.9301 27.019ZM88.1512 23.2781V19.9542H86.7529V29.0305H88.1512V28.0493C88.5927 28.638 89.39 29.1409 90.5061 29.1409C92.2846 29.1409 93.6828 27.7058 93.6828 25.6207C93.6828 23.5357 92.2968 22.162 90.5061 22.162C89.439 22.162 88.5927 22.6648 88.1512 23.2781ZM92.26 25.6207C92.26 27.0803 91.2543 27.9266 90.1995 27.9266C89.1569 27.9266 88.1512 27.1048 88.1512 25.6453C88.1512 24.198 89.1569 23.3762 90.1995 23.3762C91.2543 23.3762 92.26 24.1612 92.26 25.6207ZM101.768 25.6453C101.768 23.5234 100.247 22.162 98.321 22.162C96.3954 22.162 94.8745 23.5234 94.8745 25.6453C94.8745 27.7672 96.3341 29.1409 98.2597 29.1409C100.198 29.1409 101.768 27.7672 101.768 25.6453ZM96.2973 25.6453C96.2973 24.1121 97.2417 23.3762 98.2965 23.3762C99.339 23.3762 100.333 24.1121 100.333 25.6453C100.333 27.1784 99.3023 27.9266 98.2597 27.9266C97.2049 27.9266 96.2973 27.1784 96.2973 25.6453ZM109.852 25.6453C109.852 23.5234 108.331 22.162 106.405 22.162C104.48 22.162 102.959 23.5234 102.959 25.6453C102.959 27.7672 104.418 29.1409 106.344 29.1409C108.282 29.1409 109.852 27.7672 109.852 25.6453ZM104.382 25.6453C104.382 24.1121 105.326 23.3762 106.381 23.3762C107.423 23.3762 108.417 24.1121 108.417 25.6453C108.417 27.1784 107.387 27.9266 106.344 27.9266C105.289 27.9266 104.382 27.1784 104.382 25.6453ZM111.497 29.0305H112.895V26.1236L115.397 29.0305H117.286L114.171 25.6575L117.286 22.2723H115.348L112.895 25.2283V19.9542H111.497V29.0305Z" fill="white"/>
<defs>
<clipPath id="clip0_0_1171">
<rect width="21.0261" height="21.0261" fill="white" transform="translate(25.4457 13.7827)"/>
</clipPath>
</defs>
</svg>
