<svg width="144" height="50" viewBox="0 0 144 50" fill="none" xmlns="http://www.w3.org/2000/svg">
<rect x="0.695557" width="142.802" height="49.0608" rx="24.5304" fill="#222232"/>
<rect width="21.0261" height="21.0261" transform="translate(32.0129 13.7827)" fill="#222232"/>
<path fill-rule="evenodd" clip-rule="evenodd" d="M52.1982 24.5244C52.1982 23.81 52.1341 23.123 52.015 22.4636H42.5262V26.3608H47.9484C47.7148 27.6202 47.005 28.6872 45.9379 29.4016V31.9295H49.194C51.0991 30.1755 52.1982 27.5927 52.1982 24.5244Z" fill="#4285F4"/>
<path fill-rule="evenodd" clip-rule="evenodd" d="M42.5261 34.3704C45.2464 34.3704 47.527 33.4682 49.194 31.9295L45.9379 29.4016C45.0357 30.0061 43.8817 30.3633 42.5261 30.3633C39.9021 30.3633 37.681 28.591 36.8887 26.2096H33.5228V28.82C35.1806 32.1127 38.5877 34.3704 42.5261 34.3704Z" fill="#34A853"/>
<path fill-rule="evenodd" clip-rule="evenodd" d="M36.8887 26.2096C36.6872 25.6051 36.5728 24.9594 36.5728 24.2953C36.5728 23.6313 36.6872 22.9856 36.8887 22.3811V19.7707H33.5228C32.8404 21.1309 32.4512 22.6696 32.4512 24.2953C32.4512 25.9211 32.8404 27.4598 33.5228 28.8199L36.8887 26.2096Z" fill="#FBBC05"/>
<path fill-rule="evenodd" clip-rule="evenodd" d="M42.5261 18.2274C44.0053 18.2274 45.3334 18.7358 46.3775 19.7341L49.2672 16.8444C47.5224 15.2187 45.2418 14.2203 42.5261 14.2203C38.5877 14.2203 35.1806 16.4781 33.5228 19.7707L36.8887 22.3811C37.681 19.9997 39.9021 18.2274 42.5261 18.2274Z" fill="#EA4335"/>
<path d="M71.0005 20.3835C68.5965 20.3835 66.7077 22.1865 66.7077 24.7499C66.7077 27.3133 68.5965 29.1041 71.0005 29.1041C73.3186 29.1041 74.999 27.3992 75.1952 25.2773V24.4188H70.5958V25.3264H74.0055C73.8338 27.019 72.6809 28.0983 71.0005 28.0983C69.1975 28.0983 67.8484 26.7982 67.8484 24.7499C67.8484 22.6894 69.1975 21.3892 71.0005 21.3892C72.2025 21.3892 73.1347 21.9657 73.6007 22.9592H74.9377C74.2999 21.3157 72.8035 20.3835 71.0005 20.3835ZM83.3117 25.6575C83.3117 23.5357 81.8276 22.1988 79.9143 22.1988C78.0131 22.1988 76.5168 23.5357 76.5168 25.6575C76.5168 27.7917 77.9641 29.1409 79.8652 29.1409C81.7786 29.1409 83.3117 27.7917 83.3117 25.6575ZM77.6575 25.6575C77.6575 23.9649 78.7245 23.1677 79.902 23.1677C81.0549 23.1677 82.171 23.9649 82.171 25.6575C82.171 27.3624 81.0304 28.1596 79.8652 28.1596C78.7 28.1596 77.6575 27.3624 77.6575 25.6575ZM91.42 25.6575C91.42 23.5357 89.9359 22.1988 88.0225 22.1988C86.1214 22.1988 84.625 23.5357 84.625 25.6575C84.625 27.7917 86.0723 29.1409 87.9734 29.1409C89.8868 29.1409 91.42 27.7917 91.42 25.6575ZM85.7657 25.6575C85.7657 23.9649 86.8328 23.1677 88.0102 23.1677C89.1632 23.1677 90.2793 23.9649 90.2793 25.6575C90.2793 27.3624 89.1386 28.1596 87.9734 28.1596C86.8082 28.1596 85.7657 27.3624 85.7657 25.6575ZM92.7333 25.6453C92.7333 27.7304 94.1192 29.1409 95.9222 29.1409C97.1488 29.1409 98.0196 28.4908 98.4243 27.7672V29.1777C98.4243 30.6127 97.529 31.3731 96.3393 31.3731C95.2354 31.3731 94.4381 30.8212 94.1928 30.0117H93.089C93.3097 31.4467 94.5731 32.3421 96.3393 32.3421C98.314 32.3421 99.5527 31.0297 99.5527 29.1777V22.3091H98.4243V23.5357C98.0319 22.812 97.1488 22.1988 95.9222 22.1988C94.1192 22.1988 92.7333 23.5479 92.7333 25.6453ZM98.4243 25.6575C98.4243 27.2398 97.3695 28.1596 96.143 28.1596C94.9165 28.1596 93.8739 27.2275 93.8739 25.6453C93.8739 24.0631 94.9165 23.1677 96.143 23.1677C97.3695 23.1677 98.4243 24.0999 98.4243 25.6575ZM101.702 29.0305H102.818V19.9542H101.702V29.0305ZM107.841 23.1432C108.994 23.1432 109.975 23.8668 109.963 25.1792H105.719C105.842 23.8668 106.749 23.1432 107.841 23.1432ZM110.981 26.9577H109.779C109.533 27.6813 108.896 28.1964 107.89 28.1964C106.749 28.1964 105.792 27.4483 105.707 26.0868H111.079C111.103 25.8538 111.116 25.6575 111.116 25.4122C111.116 23.5725 109.84 22.1988 107.89 22.1988C105.927 22.1988 104.566 23.5357 104.566 25.6575C104.566 27.7917 105.976 29.1409 107.89 29.1409C109.558 29.1409 110.637 28.1842 110.981 26.9577Z" fill="white"/>
</svg>
