<svg width="52" height="52" viewBox="0 0 52 52" fill="none" xmlns="http://www.w3.org/2000/svg">
<rect width="52" height="52" rx="26" fill="#303542"/>
<path d="M20.4752 39.9964H32.5266C33.8895 40.0471 35.2173 39.5578 36.2215 38.635C37.2257 37.7122 37.8252 36.4304 37.8897 35.0681V28.6073C37.8897 28.3327 37.7806 28.0694 37.5865 27.8752C37.3923 27.681 37.129 27.572 36.8544 27.572C36.5798 27.572 36.3164 27.681 36.1223 27.8752C35.9281 28.0694 35.819 28.3327 35.819 28.6073V35.0681C35.7554 35.8813 35.3744 36.6369 34.7584 37.1715C34.1423 37.7062 33.3407 37.9771 32.5266 37.9257H20.4752C19.6611 37.9771 18.8594 37.7062 18.2434 37.1715C17.6274 36.6369 17.2464 35.8813 17.1827 35.0681V28.6073C17.1827 28.3327 17.0737 28.0694 16.8795 27.8752C16.6853 27.681 16.422 27.572 16.1474 27.572C15.8728 27.572 15.6095 27.681 15.4153 27.8752C15.2211 28.0694 15.1121 28.3327 15.1121 28.6073V35.0681C15.1766 36.4304 15.7761 37.7122 16.7803 38.635C17.7845 39.5578 19.1123 40.0471 20.4752 39.9964ZM12.3063 26.2363C12.2092 26.1401 12.1322 26.0256 12.0796 25.8994C12.0271 25.7732 12 25.6379 12 25.5012C12 25.3645 12.0271 25.2292 12.0796 25.103C12.1322 24.9769 12.2092 24.8624 12.3063 24.7661L25.7658 11.3063C25.862 11.2092 25.9765 11.1322 26.1027 11.0796C26.2289 11.0271 26.3642 11 26.5009 11C26.6376 11 26.7729 11.0271 26.8991 11.0796C27.0252 11.1322 27.1397 11.2092 27.236 11.3063L40.6955 24.7661C40.8905 24.9611 41 25.2255 41 25.5012C41 25.7769 40.8905 26.0414 40.6955 26.2363C40.5006 26.4313 40.2361 26.5408 39.9604 26.5408C39.6847 26.5408 39.4203 26.4313 39.2253 26.2363L26.5009 13.5013L13.7764 26.2363C13.6802 26.3334 13.5657 26.4104 13.4395 26.463C13.3134 26.5155 13.178 26.5426 13.0414 26.5426C12.9047 26.5426 12.7694 26.5155 12.6432 26.463C12.517 26.4104 12.4025 26.3334 12.3063 26.2363Z" fill="white"/>
</svg>
