<svg width="52" height="52" viewBox="0 0 52 52" fill="none" xmlns="http://www.w3.org/2000/svg">
<rect width="52" height="52" rx="26" fill="#303542"/>
<path d="M33.8343 15.9835C31.793 13.9421 29.0788 12.8179 26.1918 12.8179C23.3049 12.8179 20.5906 13.9421 18.5493 15.9835C16.5079 18.025 15.3836 20.7391 15.3836 23.626C15.3836 29.4662 20.9057 34.3238 23.8723 36.9335C24.2846 37.2961 24.6406 37.6093 24.9242 37.8742C25.2796 38.2062 25.7357 38.3722 26.1918 38.3722C26.6479 38.3722 27.1039 38.2062 27.4594 37.8742C27.743 37.6092 28.099 37.2961 28.5113 36.9335C31.4779 34.3238 37 29.4662 37 23.626C36.9999 20.7391 35.8758 18.025 33.8343 15.9835ZM27.5226 35.8096C27.1013 36.1801 26.7375 36.5002 26.4375 36.7804C26.2997 36.909 26.0839 36.909 25.946 36.7804C25.6461 36.5001 25.2822 36.1801 24.8609 35.8095C22.0719 33.3561 16.8804 28.7893 16.8804 23.6261C16.8804 18.4919 21.0574 14.3149 26.1917 14.3149C31.326 14.3149 35.503 18.4919 35.503 23.6261C35.503 28.7893 30.3116 33.3561 27.5226 35.8096Z" fill="white"/>
<path d="M26.1918 18.4547C23.5655 18.4547 21.4288 20.5913 21.4288 23.2177C21.4288 25.844 23.5655 27.9807 26.1918 27.9807C28.8182 27.9807 30.9548 25.844 30.9548 23.2177C30.9548 20.5913 28.8182 18.4547 26.1918 18.4547ZM26.1918 26.4837C24.3909 26.4837 22.9257 25.0185 22.9257 23.2176C22.9257 21.4167 24.3909 19.9515 26.1918 19.9515C27.9928 19.9515 29.4579 21.4167 29.4579 23.2176C29.4579 25.0185 27.9928 26.4837 26.1918 26.4837Z" fill="white"/>
</svg>
