<svg width="303" height="40" viewBox="0 0 303 40" fill="none" xmlns="http://www.w3.org/2000/svg">
<rect width="303" height="40" rx="20" fill="#202531"/>
<rect x="152" y="3" width="147" height="34" rx="17" fill="url(#paint0_linear_0_1433)"/>
<path d="M216.59 15.864C216.707 15.864 216.798 15.9013 216.862 15.976C216.937 16.04 216.974 16.1307 216.974 16.248V20.568C216.974 21.4853 216.771 22.2907 216.366 22.984C215.971 23.6773 215.422 24.2107 214.718 24.584C214.025 24.9467 213.241 25.1227 212.366 25.112H211.006C210.227 25.112 209.539 24.952 208.942 24.632C208.355 24.3013 207.897 23.848 207.566 23.272C207.246 22.696 207.086 22.0507 207.086 21.336V16.248C207.086 16.1307 207.123 16.04 207.198 15.976C207.273 15.9013 207.363 15.864 207.47 15.864H208.622C208.729 15.864 208.819 15.9013 208.894 15.976C208.969 16.0507 209.006 16.1413 209.006 16.248L209.038 20.44C209.806 20.376 210.345 20.1413 210.654 19.736C210.963 19.32 211.118 18.744 211.118 18.008V16.264C211.118 16.1467 211.155 16.0507 211.23 15.976C211.305 15.9013 211.395 15.864 211.502 15.864H212.654C212.761 15.864 212.851 15.9013 212.926 15.976C213.001 16.0507 213.038 16.1467 213.038 16.264V18.056C213.038 19.176 212.713 20.0827 212.062 20.776C211.422 21.4587 210.494 21.8427 209.278 21.928C209.481 22.408 209.779 22.776 210.174 23.032C210.579 23.2773 211.049 23.4 211.582 23.4H212.03C212.638 23.4107 213.171 23.2933 213.63 23.048C214.089 22.8027 214.441 22.456 214.686 22.008C214.931 21.56 215.054 21.048 215.054 20.472V16.248C215.054 16.1413 215.091 16.0507 215.166 15.976C215.241 15.9013 215.337 15.864 215.454 15.864H216.59ZM224.526 25C224.419 25 224.329 24.9627 224.254 24.888C224.179 24.8133 224.142 24.7227 224.142 24.616V19.848C224.142 18.3333 223.379 17.576 221.854 17.576H219.614C219.507 17.576 219.417 17.5387 219.342 17.464C219.267 17.3893 219.23 17.2987 219.23 17.192V16.248C219.23 16.1307 219.267 16.04 219.342 15.976C219.417 15.9013 219.507 15.864 219.614 15.864H221.95C223.369 15.864 224.43 16.184 225.134 16.824C225.838 17.4533 226.19 18.4347 226.19 19.768V24.616C226.19 24.7227 226.153 24.8133 226.078 24.888C226.014 24.9627 225.923 25 225.806 25H224.526ZM234.604 24.616C234.626 24.7227 234.594 24.8133 234.508 24.888C234.434 24.9627 234.338 25 234.22 25H232.876C232.77 25 232.679 24.968 232.604 24.904C232.54 24.8293 232.503 24.7333 232.492 24.616L232.188 23.112C231.868 23.56 231.49 23.9227 231.052 24.2C230.647 24.456 230.268 24.6587 229.916 24.808C229.575 24.9467 229.212 25.0533 228.828 25.128L228.716 25.144C228.535 25.144 228.444 25.0587 228.444 24.888V23.64C228.444 23.4587 228.556 23.3253 228.78 23.24C228.834 23.2187 229.063 23.144 229.468 23.016C229.863 22.888 230.199 22.744 230.476 22.584C230.732 22.4453 230.978 22.264 231.212 22.04C231.458 21.8053 231.66 21.5547 231.82 21.288L231.516 19.768C231.356 18.9787 231.159 18.4187 230.924 18.088C230.69 17.7467 230.311 17.576 229.788 17.576H229.228C229.122 17.576 229.026 17.5387 228.94 17.464C228.866 17.3893 228.828 17.2987 228.828 17.192V16.184C228.828 16.0773 228.866 15.9867 228.94 15.912C229.015 15.8373 229.111 15.8 229.228 15.8H229.82C230.61 15.8 231.25 15.9387 231.74 16.216C232.242 16.4827 232.636 16.8933 232.924 17.448C233.212 18.0027 233.452 18.744 233.644 19.672L234.604 24.616ZM241.418 15.864C242.484 15.864 243.348 16.2053 244.01 16.888C244.671 17.56 245.002 18.52 245.002 19.768V24.616C245.002 24.7227 244.964 24.8133 244.89 24.888C244.826 24.9627 244.735 25 244.618 25H240.378C240.271 25 240.18 24.9627 240.106 24.888C240.031 24.8133 239.994 24.7227 239.994 24.616V23.672C239.994 23.5653 240.031 23.4747 240.106 23.4C240.18 23.3253 240.271 23.288 240.378 23.288H242.954V19.88C242.954 19.1973 242.783 18.6533 242.442 18.248C242.1 17.832 241.663 17.624 241.13 17.624H239.674L238.362 24.6C238.351 24.7067 238.308 24.8027 238.234 24.888C238.159 24.9627 238.068 25 237.962 25H236.698C236.591 25 236.5 24.9627 236.426 24.888C236.362 24.8027 236.34 24.7067 236.362 24.6L237.786 17.64H236.842C236.735 17.64 236.644 17.6027 236.57 17.528C236.495 17.4533 236.458 17.3627 236.458 17.256V16.248C236.458 16.1307 236.495 16.04 236.57 15.976C236.644 15.9013 236.735 15.864 236.842 15.864H241.418Z" fill="white"/>
<path d="M64.7941 25.144C64.7728 25.1547 64.7355 25.16 64.6821 25.16C64.5968 25.16 64.5275 25.1333 64.4741 25.08C64.4208 25.0267 64.3941 24.952 64.3941 24.856V24.168C64.3941 23.976 64.5115 23.832 64.7461 23.736L65.3701 23.496C66.1061 23.208 66.6715 22.808 67.0661 22.296C67.4608 21.7733 67.6581 21 67.6581 19.976C67.6581 19.2613 67.5728 18.7013 67.4021 18.296C67.2315 17.88 66.9488 17.5813 66.5541 17.4C66.1595 17.2187 65.6208 17.128 64.9381 17.128H61.7541C61.6475 17.128 61.5568 17.096 61.4821 17.032C61.4181 16.9573 61.3861 16.8667 61.3861 16.76V16.216C61.3861 16.1093 61.4181 16.024 61.4821 15.96C61.5568 15.896 61.6475 15.864 61.7541 15.864H65.1461C66.1275 15.864 66.9008 16.0027 67.4661 16.28C68.0315 16.5573 68.4421 17 68.6981 17.608C68.9541 18.2053 69.0821 19.016 69.0821 20.04C69.0821 21.4053 68.7461 22.472 68.0741 23.24C67.4021 23.9973 66.5275 24.5573 65.4501 24.92L64.7941 25.144ZM61.7541 28.056C61.6475 28.056 61.5568 28.024 61.4821 27.96C61.4181 27.896 61.3861 27.8053 61.3861 27.688V19.256C61.3861 19.1387 61.4181 19.048 61.4821 18.984C61.5568 18.92 61.6475 18.888 61.7541 18.888H62.4101C62.5168 18.888 62.6021 18.9253 62.6661 19C62.7301 19.064 62.7621 19.1493 62.7621 19.256V27.688C62.7621 27.7947 62.7301 27.88 62.6661 27.944C62.6021 28.0187 62.5168 28.056 62.4101 28.056H61.7541ZM72.2185 25C72.1118 25 72.0212 24.968 71.9465 24.904C71.8825 24.8293 71.8505 24.7387 71.8505 24.632V16.232C71.8505 16.1147 71.8825 16.024 71.9465 15.96C72.0212 15.896 72.1118 15.864 72.2185 15.864H75.2905C76.6665 15.864 77.6852 16.1947 78.3465 16.856C79.0185 17.5067 79.3545 18.488 79.3545 19.8V24.632C79.3545 24.7387 79.3225 24.8293 79.2585 24.904C79.1945 24.968 79.1092 25 79.0025 25H78.3305C78.2238 25 78.1332 24.968 78.0585 24.904C77.9945 24.8293 77.9625 24.7387 77.9625 24.632V19.848C77.9625 18.0133 77.0452 17.096 75.2105 17.096H73.2425V24.632C73.2425 24.7387 73.2105 24.8293 73.1465 24.904C73.0825 24.968 72.9972 25 72.8905 25H72.2185ZM91.0848 15.864C91.2021 15.864 91.2928 15.896 91.3568 15.96C91.4208 16.024 91.4528 16.1147 91.4528 16.232V20.68C91.4528 21.576 91.2661 22.3653 90.8928 23.048C90.5301 23.72 90.0128 24.2373 89.3408 24.6C88.6794 24.952 87.9168 25.1173 87.0528 25.096H85.8688C85.1861 25.096 84.5674 24.936 84.0128 24.616C83.4688 24.296 83.0368 23.848 82.7168 23.272C82.3968 22.6853 82.2368 22.0133 82.2368 21.256V16.232C82.2368 16.1147 82.2688 16.024 82.3328 15.96C82.4074 15.896 82.4981 15.864 82.6048 15.864H83.2128C83.3301 15.864 83.4208 15.896 83.4848 15.96C83.5488 16.024 83.5808 16.1147 83.5808 16.232L83.6288 20.776C84.5994 20.712 85.2768 20.456 85.6608 20.008C86.0448 19.56 86.2368 18.9733 86.2368 18.248V16.232C86.2368 16.1253 86.2688 16.04 86.3328 15.976C86.4074 15.9013 86.4981 15.864 86.6048 15.864H87.2288C87.3354 15.864 87.4208 15.9013 87.4848 15.976C87.5488 16.04 87.5808 16.1253 87.5808 16.232V18.312C87.5808 19.3253 87.2501 20.168 86.5888 20.84C85.9381 21.5013 84.9888 21.864 83.7408 21.928C83.9008 22.536 84.2101 23.0107 84.6688 23.352C85.1381 23.6827 85.7034 23.848 86.3648 23.848H86.8928C87.9061 23.8693 88.6954 23.5813 89.2608 22.984C89.8261 22.3867 90.1088 21.5867 90.1088 20.584V16.232C90.1088 16.1253 90.1408 16.04 90.2048 15.976C90.2794 15.9013 90.3701 15.864 90.4768 15.864H91.0848ZM98.4381 15.864C99.0995 15.864 99.6861 16.024 100.198 16.344C100.71 16.6533 101.11 17.1013 101.398 17.688C101.697 18.2747 101.846 18.968 101.846 19.768V24.632C101.846 24.7387 101.814 24.8293 101.75 24.904C101.686 24.968 101.601 25 101.494 25H97.3661C97.2595 25 97.1688 24.968 97.0941 24.904C97.0301 24.8293 96.9981 24.7387 96.9981 24.632V24.136C96.9981 24.0293 97.0301 23.944 97.0941 23.88C97.1688 23.8053 97.2595 23.768 97.3661 23.768H100.454V19.864C100.454 19.32 100.358 18.84 100.166 18.424C99.9848 18.008 99.7288 17.688 99.3981 17.464C99.0675 17.2293 98.6941 17.112 98.2781 17.112H96.5661L95.3341 24.616C95.3235 24.7227 95.2808 24.8133 95.2061 24.888C95.1315 24.9627 95.0408 25 94.9341 25H94.2781C94.1715 25 94.0861 24.9627 94.0221 24.888C93.9688 24.8133 93.9475 24.7227 93.9581 24.616L95.2381 17.128H94.4221C94.3155 17.128 94.2248 17.096 94.1501 17.032C94.0861 16.9573 94.0541 16.8667 94.0541 16.76V16.232C94.0541 16.1253 94.0861 16.04 94.1501 15.976C94.2248 15.9013 94.3155 15.864 94.4221 15.864H98.4381Z" fill="white"/>
<defs>
<linearGradient id="paint0_linear_0_1433" x1="146.862" y1="20.3333" x2="302.596" y2="18.6861" gradientUnits="userSpaceOnUse">
<stop stop-color="#E8BF7D"/>
<stop offset="1" stop-color="#DCAA64"/>
</linearGradient>
</defs>
</svg>
